<mxfile host="app.diagrams.net" modified="2024-02-15T17:15:21.308Z" agent="Mozilla/5.0 (Windows NT 10.0; Win64; x64; rv:122.0) Gecko/20100101 Firefox/122.0" etag="QVtcznBnaWpKuJewtePJ" version="23.1.4" type="github">
  <diagram id="C5RBs43oDa-KdzZeNtuy" name="Page-1">
    <mxGraphModel dx="1050" dy="634" grid="1" gridSize="10" guides="1" tooltips="1" connect="1" arrows="1" fold="1" page="1" pageScale="1" pageWidth="827" pageHeight="1169" math="0" shadow="0">
      <root>
        <mxCell id="WIyWlLk6GJQsqaUBKTNV-0" />
        <mxCell id="WIyWlLk6GJQsqaUBKTNV-1" parent="WIyWlLk6GJQsqaUBKTNV-0" />
        <mxCell id="MQ1HAu035y0CXCqz7wdD-0" value="ReportsResource" style="swimlane;fontStyle=1;align=center;verticalAlign=top;childLayout=stackLayout;horizontal=1;startSize=26;horizontalStack=0;resizeParent=1;resizeParentMax=0;resizeLast=0;collapsible=1;marginBottom=0;whiteSpace=wrap;html=1;" vertex="1" parent="WIyWlLk6GJQsqaUBKTNV-1">
          <mxGeometry x="30" y="40" width="420" height="138" as="geometry" />
        </mxCell>
        <mxCell id="MQ1HAu035y0CXCqz7wdD-1" value="&lt;div&gt;- context: ContainerRequestContext&lt;/div&gt;&lt;div&gt;- service: ReportService&lt;br&gt;&lt;/div&gt;" style="text;strokeColor=none;fillColor=none;align=left;verticalAlign=top;spacingLeft=4;spacingRight=4;overflow=hidden;rotatable=0;points=[[0,0.5],[1,0.5]];portConstraint=eastwest;whiteSpace=wrap;html=1;" vertex="1" parent="MQ1HAu035y0CXCqz7wdD-0">
          <mxGeometry y="26" width="420" height="54" as="geometry" />
        </mxCell>
        <mxCell id="MQ1HAu035y0CXCqz7wdD-2" value="" style="line;strokeWidth=1;fillColor=none;align=left;verticalAlign=middle;spacingTop=-1;spacingLeft=3;spacingRight=3;rotatable=0;labelPosition=right;points=[];portConstraint=eastwest;strokeColor=inherit;" vertex="1" parent="MQ1HAu035y0CXCqz7wdD-0">
          <mxGeometry y="80" width="420" height="8" as="geometry" />
        </mxCell>
        <mxCell id="MQ1HAu035y0CXCqz7wdD-3" value="&lt;div&gt;+ getReport(Long id): Report&lt;/div&gt;&lt;div&gt;+ updateReport(ReportDTO dto, Long id): ReportDTO&lt;br&gt;&lt;/div&gt;&lt;div&gt;+ deleteReport(Long id): void&lt;br&gt;&lt;/div&gt;" style="text;strokeColor=none;fillColor=none;align=left;verticalAlign=top;spacingLeft=4;spacingRight=4;overflow=hidden;rotatable=0;points=[[0,0.5],[1,0.5]];portConstraint=eastwest;whiteSpace=wrap;html=1;" vertex="1" parent="MQ1HAu035y0CXCqz7wdD-0">
          <mxGeometry y="88" width="420" height="50" as="geometry" />
        </mxCell>
        <mxCell id="MQ1HAu035y0CXCqz7wdD-4" value="ReportService" style="swimlane;fontStyle=1;align=center;verticalAlign=top;childLayout=stackLayout;horizontal=1;startSize=26;horizontalStack=0;resizeParent=1;resizeParentMax=0;resizeLast=0;collapsible=1;marginBottom=0;whiteSpace=wrap;html=1;" vertex="1" parent="WIyWlLk6GJQsqaUBKTNV-1">
          <mxGeometry x="380" y="310" width="250" height="180" as="geometry" />
        </mxCell>
        <mxCell id="MQ1HAu035y0CXCqz7wdD-5" value="&lt;div&gt;- em: EntityManager&lt;/div&gt;&lt;div&gt;- repo: ReportRepo&lt;br&gt;&lt;/div&gt;" style="text;strokeColor=none;fillColor=none;align=left;verticalAlign=top;spacingLeft=4;spacingRight=4;overflow=hidden;rotatable=0;points=[[0,0.5],[1,0.5]];portConstraint=eastwest;whiteSpace=wrap;html=1;" vertex="1" parent="MQ1HAu035y0CXCqz7wdD-4">
          <mxGeometry y="26" width="250" height="54" as="geometry" />
        </mxCell>
        <mxCell id="MQ1HAu035y0CXCqz7wdD-6" value="" style="line;strokeWidth=1;fillColor=none;align=left;verticalAlign=middle;spacingTop=-1;spacingLeft=3;spacingRight=3;rotatable=0;labelPosition=right;points=[];portConstraint=eastwest;strokeColor=inherit;" vertex="1" parent="MQ1HAu035y0CXCqz7wdD-4">
          <mxGeometry y="80" width="250" height="8" as="geometry" />
        </mxCell>
        <mxCell id="MQ1HAu035y0CXCqz7wdD-7" value="&lt;div&gt;+ createReport()&lt;/div&gt;&lt;div&gt;+ getReport()&lt;/div&gt;&lt;div&gt;+ updateReport(Long id, ReportDTO dto, CallerDetails caller)&lt;/div&gt;&lt;div&gt;+ deleteReport()&lt;br&gt;&lt;/div&gt;" style="text;strokeColor=none;fillColor=none;align=left;verticalAlign=top;spacingLeft=4;spacingRight=4;overflow=hidden;rotatable=0;points=[[0,0.5],[1,0.5]];portConstraint=eastwest;whiteSpace=wrap;html=1;" vertex="1" parent="MQ1HAu035y0CXCqz7wdD-4">
          <mxGeometry y="88" width="250" height="92" as="geometry" />
        </mxCell>
        <mxCell id="MQ1HAu035y0CXCqz7wdD-12" value="ReportDTO" style="swimlane;fontStyle=1;align=center;verticalAlign=top;childLayout=stackLayout;horizontal=1;startSize=26;horizontalStack=0;resizeParent=1;resizeParentMax=0;resizeLast=0;collapsible=1;marginBottom=0;whiteSpace=wrap;html=1;" vertex="1" parent="WIyWlLk6GJQsqaUBKTNV-1">
          <mxGeometry x="600" y="220" width="160" height="86" as="geometry" />
        </mxCell>
        <mxCell id="MQ1HAu035y0CXCqz7wdD-13" value="+ field: type" style="text;strokeColor=none;fillColor=none;align=left;verticalAlign=top;spacingLeft=4;spacingRight=4;overflow=hidden;rotatable=0;points=[[0,0.5],[1,0.5]];portConstraint=eastwest;whiteSpace=wrap;html=1;" vertex="1" parent="MQ1HAu035y0CXCqz7wdD-12">
          <mxGeometry y="26" width="160" height="26" as="geometry" />
        </mxCell>
        <mxCell id="MQ1HAu035y0CXCqz7wdD-14" value="" style="line;strokeWidth=1;fillColor=none;align=left;verticalAlign=middle;spacingTop=-1;spacingLeft=3;spacingRight=3;rotatable=0;labelPosition=right;points=[];portConstraint=eastwest;strokeColor=inherit;" vertex="1" parent="MQ1HAu035y0CXCqz7wdD-12">
          <mxGeometry y="52" width="160" height="8" as="geometry" />
        </mxCell>
        <mxCell id="MQ1HAu035y0CXCqz7wdD-15" value="+ method(type): type" style="text;strokeColor=none;fillColor=none;align=left;verticalAlign=top;spacingLeft=4;spacingRight=4;overflow=hidden;rotatable=0;points=[[0,0.5],[1,0.5]];portConstraint=eastwest;whiteSpace=wrap;html=1;" vertex="1" parent="MQ1HAu035y0CXCqz7wdD-12">
          <mxGeometry y="60" width="160" height="26" as="geometry" />
        </mxCell>
        <mxCell id="MQ1HAu035y0CXCqz7wdD-16" value="Classname" style="swimlane;fontStyle=1;align=center;verticalAlign=top;childLayout=stackLayout;horizontal=1;startSize=26;horizontalStack=0;resizeParent=1;resizeParentMax=0;resizeLast=0;collapsible=1;marginBottom=0;whiteSpace=wrap;html=1;" vertex="1" parent="WIyWlLk6GJQsqaUBKTNV-1">
          <mxGeometry x="70" y="300" width="160" height="86" as="geometry" />
        </mxCell>
        <mxCell id="MQ1HAu035y0CXCqz7wdD-17" value="+ field: type" style="text;strokeColor=none;fillColor=none;align=left;verticalAlign=top;spacingLeft=4;spacingRight=4;overflow=hidden;rotatable=0;points=[[0,0.5],[1,0.5]];portConstraint=eastwest;whiteSpace=wrap;html=1;" vertex="1" parent="MQ1HAu035y0CXCqz7wdD-16">
          <mxGeometry y="26" width="160" height="26" as="geometry" />
        </mxCell>
        <mxCell id="MQ1HAu035y0CXCqz7wdD-18" value="" style="line;strokeWidth=1;fillColor=none;align=left;verticalAlign=middle;spacingTop=-1;spacingLeft=3;spacingRight=3;rotatable=0;labelPosition=right;points=[];portConstraint=eastwest;strokeColor=inherit;" vertex="1" parent="MQ1HAu035y0CXCqz7wdD-16">
          <mxGeometry y="52" width="160" height="8" as="geometry" />
        </mxCell>
        <mxCell id="MQ1HAu035y0CXCqz7wdD-19" value="+ method(type): type" style="text;strokeColor=none;fillColor=none;align=left;verticalAlign=top;spacingLeft=4;spacingRight=4;overflow=hidden;rotatable=0;points=[[0,0.5],[1,0.5]];portConstraint=eastwest;whiteSpace=wrap;html=1;" vertex="1" parent="MQ1HAu035y0CXCqz7wdD-16">
          <mxGeometry y="60" width="160" height="26" as="geometry" />
        </mxCell>
      </root>
    </mxGraphModel>
  </diagram>
</mxfile>
